<?xml version="1.0" encoding="UTF-8" standalone="no"?>
<svg width="82px" height="65px" viewBox="0 0 82 65" version="1.1" xmlns="http://www.w3.org/2000/svg" xmlns:xlink="http://www.w3.org/1999/xlink">
    <!-- Generator: Sketch 39.1 (31720) - http://www.bohemiancoding.com/sketch -->
    <title>chain</title>
    <desc>Created with Sketch.</desc>
    <defs></defs>
    <g id="Page-1" stroke="none" stroke-width="1" fill="none" fill-rule="evenodd">
        <g id="chain" fill="#3E454C">
            <g id="Page-1">
                <g id="noun_581899_cc">
                    <g id="Group">
                        <path d="M66.125,0.36218 C62.060618,0.36218 57.972432,1.92099 54.875,5.01843 L47.96875,11.92468 C47.1834701,12.7099599 47.1834702,13.9831501 47.96875,14.76843 C48.7540299,15.5537098 50.0272201,15.5537099 50.8125,14.76843 L57.71875,7.83093 C62.395605,3.15406 69.823166,3.15406 74.5,7.83093 C79.176792,12.50759 79.176817,19.96666 74.5,24.64343 L56.28125,42.86218 C51.604435,47.53908 44.176761,47.53908 39.5,42.86218 C35.188656,38.55078 34.845829,31.87758 38.46875,27.20593 C38.9742522,26.6486199 39.1242344,25.8547763 38.8569055,25.1514541 C38.5895767,24.4481318 37.9501681,23.9543311 37.2021093,23.8734926 C36.4540504,23.7926541 35.7239108,24.1384553 35.3125,24.76843 C30.479731,31.00008 30.94556,39.96388 36.65625,45.67468 C42.851051,51.86958 52.930153,51.86958 59.125,45.67468 L77.34375,27.45593 C83.538653,21.2611 83.538658,11.21317 77.34375,5.01843 C74.246327,1.92098 70.189382,0.36218 66.125,0.36218 L66.125,0.36218 L66.125,0.36218 Z M34.125,14.36218 C30.060596,14.36217 25.972427,15.92097 22.875,19.01843 L4.65625,37.23718 C-1.5386464,43.43198 -1.5386639,53.47998 4.65625,59.67468 C10.851091,65.86958 20.930141,65.86958 27.125,59.67468 L34.03125,52.76843 C34.5502899,52.2637718 34.7561331,51.5180426 34.5694638,50.8185879 C34.3827945,50.1191332 33.8327507,49.5751339 33.1312761,49.3962045 C32.4298016,49.2172752 31.6863923,49.4313457 31.1875,49.95593 L24.28125,56.86218 C19.604399,61.53908 12.176831,61.53908 7.5,56.86218 C2.823204,52.18548 2.823187,44.72648 7.5,40.04968 L25.71875,21.83093 C30.395565,17.15406 37.823238,17.1541 42.5,21.83093 C46.811344,26.14234 47.154164,32.81558 43.53125,37.48718 C43.0868823,38.0507302 42.9778768,38.8089148 43.2454826,39.4748267 C43.5130884,40.1407386 44.1164278,40.6126576 44.8271894,40.7120033 C45.5379509,40.8113491 46.2475633,40.5229461 46.6875,39.95593 C51.520276,33.72423 51.05444,24.7292 45.34375,19.01843 C42.24635,15.92098 38.189404,14.36219 34.125,14.36218 L34.125,14.36218 L34.125,14.36218 Z" id="Shape"></path>
                    </g>
                </g>
            </g>
        </g>
    </g>
</svg>