<?xml version="1.0" encoding="UTF-8" standalone="no"?>
<svg width="90px" height="58px" viewBox="0 0 90 58" version="1.1" xmlns="http://www.w3.org/2000/svg" xmlns:xlink="http://www.w3.org/1999/xlink">
    <!-- Generator: Sketch 39.1 (31720) - http://www.bohemiancoding.com/sketch -->
    <title>mouth</title>
    <desc>Created with Sketch.</desc>
    <defs></defs>
    <g id="Page-1" stroke="none" stroke-width="1" fill="none" fill-rule="evenodd">
        <g id="mouth" fill="#3E454C">
            <g id="Page-1">
                <g id="noun_184246_cc">
                    <path d="M89.447,24.105 C83.81,21.287 79.203,15.591 75.138,10.566 C70.552,4.897 66.59,0 62,0 C54.8,0 47.002,3.819 45,4.866 C42.998,3.819 35.2,0 28,0 C23.41,0 19.448,4.897 14.861,10.567 C10.797,15.592 6.189,21.287 0.552,24.106 C0.214,24.275 0,24.621 0,25 C0,25.379 0.214,25.725 0.553,25.895 C2.689,26.962 4.889,30.266 7.438,34.092 C13.779,43.612 23.363,58 45,58 C66.637,58 76.221,43.612 82.563,34.092 C85.112,30.266 87.312,26.962 89.448,25.895 C89.786,25.725 90,25.379 90,25 C90,24.621 89.786,24.275 89.447,24.105 L89.447,24.105 L89.447,24.105 Z M80.898,32.982 C74.428,42.697 65.565,56 45,56 C24.435,56 15.572,42.697 9.102,32.982 C6.83,29.571 4.942,26.738 2.927,25.084 C8.26,21.908 12.573,16.576 16.417,11.825 C20.682,6.553 24.364,2 28,2 C35.641,2 44.427,6.826 44.515,6.875 C44.549,6.894 44.588,6.895 44.623,6.91 C44.686,6.935 44.745,6.956 44.811,6.969 C44.875,6.981 44.936,6.986 45,6.986 C45.064,6.986 45.125,6.982 45.189,6.969 C45.254,6.956 45.314,6.935 45.377,6.91 C45.412,6.895 45.451,6.894 45.485,6.875 C45.573,6.826 54.359,2 62,2 C65.636,2 69.318,6.553 73.583,11.825 C77.427,16.576 81.74,21.908 87.073,25.084 C85.059,26.738 83.171,29.571 80.898,32.982 L80.898,32.982 L80.898,32.982 Z" id="Shape"></path>
                    <path d="M64.67,13.419 C64.522,13.309 64.375,13.205 64.23,13.102 C64.058,12.982 63.887,12.87 63.716,12.758 C63.424,12.567 63.138,12.39 62.858,12.231 C62.808,12.202 62.758,12.176 62.709,12.148 C62.348,11.949 61.995,11.775 61.653,11.628 C61.555,11.586 61.458,11.546 61.361,11.507 C61.187,11.44 61.013,11.371 60.845,11.318 C60.597,11.237 60.352,11.176 60.11,11.125 C60.014,11.106 59.92,11.09 59.826,11.075 C59.546,11.031 59.27,11 59,11 C54.295,11 50.203,12.753 47.216,14.034 C46.379,14.392 45.641,14.709 45,14.941 C44.359,14.709 43.621,14.392 42.784,14.034 C39.797,12.753 35.705,11 31,11 C30.73,11 30.454,11.031 30.175,11.076 C30.081,11.091 29.987,11.107 29.891,11.126 C29.649,11.177 29.403,11.239 29.154,11.319 C28.987,11.372 28.814,11.441 28.642,11.507 C28.543,11.546 28.446,11.587 28.346,11.629 C28.007,11.775 27.658,11.946 27.299,12.144 C27.246,12.173 27.194,12.201 27.14,12.231 C26.868,12.386 26.588,12.558 26.304,12.744 C26.125,12.86 25.947,12.978 25.768,13.103 C25.624,13.204 25.48,13.307 25.333,13.416 C20.13,17.235 14.951,24.347 14.187,25.418 C13.987,25.697 13.945,26.06 14.075,26.378 C14.121,26.489 16.441,32.002 21.351,37.557 C21.392,37.646 21.442,37.731 21.508,37.805 C25.246,41.984 29.497,45.034 34.097,46.886 C34.285,46.962 34.479,47.031 34.67,47.104 C34.98,47.222 35.289,47.339 35.602,47.447 C35.882,47.543 36.169,47.629 36.456,47.718 C36.696,47.791 36.936,47.866 37.178,47.934 C37.488,48.02 37.803,48.098 38.119,48.175 C38.356,48.233 38.594,48.289 38.832,48.34 C39.141,48.406 39.452,48.468 39.768,48.526 C40.039,48.575 40.31,48.618 40.582,48.66 C40.87,48.704 41.158,48.747 41.451,48.782 C41.793,48.823 42.137,48.853 42.48,48.883 C42.717,48.904 42.952,48.928 43.192,48.943 C43.791,48.978 44.394,49 45,49 C45.606,49 46.209,48.978 46.809,48.941 C47.049,48.926 47.284,48.902 47.52,48.881 C47.865,48.852 48.208,48.821 48.55,48.78 C48.843,48.744 49.131,48.702 49.418,48.658 C49.691,48.616 49.963,48.573 50.234,48.524 C50.548,48.466 50.86,48.405 51.168,48.338 C51.407,48.287 51.647,48.231 51.885,48.172 C52.199,48.096 52.513,48.018 52.822,47.932 C53.066,47.865 53.307,47.789 53.55,47.715 C53.834,47.627 54.119,47.541 54.398,47.445 C54.715,47.338 55.029,47.217 55.343,47.098 C55.53,47.027 55.719,46.96 55.903,46.886 C60.504,45.032 64.756,41.983 68.495,37.803 C68.562,37.728 68.612,37.642 68.653,37.553 C73.561,31.999 75.882,26.488 75.927,26.376 C76.057,26.058 76.015,25.695 75.815,25.416 C75.049,24.348 69.873,17.239 64.67,13.419 L64.67,13.419 L64.67,13.419 Z M48.412,46.788 C48.368,46.793 48.325,46.8 48.282,46.805 C47.836,46.859 47.381,46.897 46.922,46.928 C46.822,46.936 46.724,46.946 46.624,46.951 C46.091,46.982 45.55,47 45,47 C44.45,47 43.909,46.982 43.376,46.951 C43.276,46.945 43.178,46.935 43.078,46.928 C42.619,46.897 42.164,46.859 41.718,46.805 C41.675,46.8 41.631,46.793 41.588,46.788 C33.959,45.838 28.153,41.802 24.008,37.502 C29.605,35.336 36.612,34.122 44,34.02 L44,39 C44,39.553 44.447,40 45,40 C45.553,40 46,39.553 46,39 L46,34.02 C53.388,34.123 60.395,35.336 65.992,37.502 C61.847,41.801 56.041,45.839 48.412,46.788 L48.412,46.788 L48.412,46.788 Z M24.466,16.721 C24.568,16.629 24.669,16.539 24.772,16.449 C25.059,16.196 25.335,15.961 25.602,15.742 C25.709,15.654 25.817,15.566 25.923,15.482 C26.174,15.283 26.414,15.101 26.647,14.931 C26.761,14.847 26.876,14.764 26.99,14.684 C27.199,14.538 27.399,14.406 27.594,14.283 C27.732,14.196 27.868,14.112 28.003,14.032 C28.186,13.926 28.358,13.831 28.527,13.743 C28.686,13.66 28.843,13.584 29,13.514 L29,18.95 C28.175,18.722 27.37,18.476 26.586,18.213 C26.402,18.077 26.191,18 25.973,18.006 C25.272,17.758 24.582,17.5 23.918,17.224 C24.105,17.047 24.286,16.883 24.466,16.721 L24.466,16.721 L24.466,16.721 Z M61.505,13.759 C61.656,13.838 61.813,13.924 61.975,14.019 C62.158,14.126 62.342,14.238 62.529,14.359 C62.675,14.454 62.828,14.557 62.982,14.664 C63.174,14.798 63.368,14.936 63.563,15.083 C63.716,15.198 63.876,15.323 64.038,15.451 C64.191,15.573 64.345,15.698 64.499,15.826 C64.713,16.003 64.933,16.19 65.159,16.389 C65.3,16.513 65.441,16.639 65.583,16.766 C65.741,16.911 65.901,17.055 66.066,17.209 C66.071,17.214 66.077,17.22 66.083,17.225 C64.497,17.885 62.791,18.457 61.001,18.951 L61.001,13.516 C61.166,13.589 61.334,13.669 61.505,13.759 L61.505,13.759 L61.505,13.759 Z M59,19.464 C57.392,19.838 55.717,20.14 54,20.38 L54,14 C54,13.897 53.971,13.803 53.941,13.709 C55.528,13.291 57.225,13 59,13 L59,19.464 L59,19.464 L59,19.464 Z M48.003,15.872 C49.17,15.372 50.522,14.801 52,14.296 L52,20.618 C50.043,20.826 48.038,20.949 46,20.978 L46,16.691 C46.613,16.458 47.262,16.19 48.003,15.872 L48.003,15.872 L48.003,15.872 Z M44,16.691 L44,20.978 C41.962,20.948 39.957,20.826 38,20.618 L38,14.296 C39.479,14.8 40.83,15.372 41.997,15.872 C42.738,16.19 43.387,16.458 44,16.691 L44,16.691 L44,16.691 Z M36.059,13.709 C36.029,13.803 36,13.897 36,14 L36,20.379 C34.282,20.14 32.608,19.837 31,19.463 L31,13 C32.775,13 34.472,13.291 36.059,13.709 L36.059,13.709 L36.059,13.709 Z" id="Shape"></path>
                </g>
            </g>
        </g>
    </g>
</svg>