<?xml version="1.0" encoding="UTF-8" standalone="no"?>
<svg width="99px" height="42px" viewBox="0 0 99 42" version="1.1" xmlns="http://www.w3.org/2000/svg" xmlns:xlink="http://www.w3.org/1999/xlink">
    <!-- Generator: Sketch 39.1 (31720) - http://www.bohemiancoding.com/sketch -->
    <title>pacman</title>
    <desc>Created with Sketch.</desc>
    <defs></defs>
    <g id="Page-1" stroke="none" stroke-width="1" fill="none" fill-rule="evenodd">
        <g id="pacman" fill="#3E454C">
            <g id="Page-1">
                <g id="noun_39007_cc">
                    <g id="Group">
                        <path d="M37.859,9.563 C34.199,4.209 28.018,0.692 21.01,0.692 C9.772,0.692 0.661,9.737 0.661,20.895 C0.661,32.055 9.772,41.1 21.01,41.1 C28.002,41.1 34.168,37.598 37.832,32.267 L23.793,20.924 L37.859,9.563 L37.859,9.563 L37.859,9.563 Z M21.01,8.865 C21.01,7.648 22.075,6.662 23.387,6.662 C24.7,6.662 25.763,7.648 25.763,8.865 C25.763,10.082 24.7,11.068 23.387,11.068 C22.075,11.068 21.01,10.082 21.01,8.865 L21.01,8.865 L21.01,8.865 Z" id="Shape"></path>
                        <ellipse id="Oval" cx="36.374" cy="20.924" rx="2.377" ry="2.203"></ellipse>
                        <ellipse id="Oval" cx="44.142" cy="20.924" rx="2.377" ry="2.203"></ellipse>
                        <ellipse id="Oval" cx="51.911" cy="20.924" rx="2.378" ry="2.203"></ellipse>
                        <path d="M96.197,7.773 C96.197,3.687 92.884,0 88.798,0 L68.307,0 C64.22,0 60.908,3.688 60.908,7.773 L58.346,33.859 C58.346,37.669 61.225,40.899 64.927,41.307 L71.723,32.292 L78.554,41.399 L85.099,32.327 L91.912,41.417 C95.74,41.135 98.759,37.947 98.759,34.046 L96.197,7.773 L96.197,7.773 L96.197,7.773 Z M72.913,18.016 C70.398,18.016 68.36,15.807 68.36,13.082 C68.36,10.357 70.398,8.148 72.913,8.148 C75.428,8.148 77.466,10.357 77.466,13.082 C77.466,15.807 75.428,18.016 72.913,18.016 L72.913,18.016 L72.913,18.016 Z M86.279,18.016 C83.764,18.016 81.725,15.807 81.725,13.082 C81.725,10.357 83.764,8.148 86.279,8.148 C88.794,8.148 90.832,10.357 90.832,13.082 C90.832,15.807 88.794,18.016 86.279,18.016 L86.279,18.016 L86.279,18.016 Z" id="Shape"></path>
                        <circle id="Oval" cx="74.927" cy="13.388" r="1.392"></circle>
                        <circle id="Oval" cx="88.145" cy="13.388" r="1.392"></circle>
                    </g>
                </g>
            </g>
        </g>
    </g>
</svg>